<svg xmlns="http://www.w3.org/2000/svg" width="1280" height="340" viewBox="0 0 1280 340" fill="none" role="img" aria-label="Kyle Littlejohn. Chief of Staff, Strategy and Operations, builder of AI operating systems.">
  <defs>
    <linearGradient id="goldgrad" x1="0" y1="0" x2="1" y2="0">
      <stop offset="0" stop-color="#8a6d12"/>
      <stop offset="1" stop-color="#b8902a"/>
    </linearGradient>
    <radialGradient id="glowA" cx="0.86" cy="0.0" r="0.85">
      <stop offset="0" stop-color="#e0a92e" stop-opacity="0.20"/>
      <stop offset="0.62" stop-color="#e0a92e" stop-opacity="0"/>
    </radialGradient>
    <radialGradient id="glowB" cx="0.04" cy="1.0" r="0.7">
      <stop offset="0" stop-color="#3f7fd6" stop-opacity="0.12"/>
      <stop offset="0.7" stop-color="#3f7fd6" stop-opacity="0"/>
    </radialGradient>
  </defs>
  <rect width="1280" height="340" fill="#f6f3ec"/>
  <rect width="1280" height="340" fill="url(#glowA)"/>
  <rect width="1280" height="340" fill="url(#glowB)"/>
  <rect x="0.5" y="0.5" width="1279" height="339" fill="none" stroke="#e4ddcf" stroke-width="1"/>

  <rect x="64" y="62" width="42" height="3" rx="1.5" fill="url(#goldgrad)"/>
  <text x="64" y="95" font-family="ui-monospace, SFMono-Regular, Menlo, monospace" font-size="14.5" letter-spacing="3" fill="#7a5e0e">CHIEF OF STAFF · STRATEGY &amp; OPERATIONS · PMO · CONSULTING</text>

  <text x="61" y="184" font-family="Georgia, 'Times New Roman', serif" font-size="80" font-weight="600" fill="#1b1916">Kyle <tspan fill="url(#goldgrad)">Littlejohn</tspan></text>

  <text x="64" y="230" font-family="-apple-system, BlinkMacSystemFont, 'Segoe UI', Helvetica, Arial, sans-serif" font-size="22" fill="#5a554c">Turning ambiguous executive mandates into measurable results.</text>

  <text x="64" y="290" font-family="ui-monospace, SFMono-Regular, Menlo, monospace" font-size="13.5" letter-spacing="1.6" fill="#8c867a">APPLIED AI · MULTI-AGENT SYSTEMS · OPERATING CADENCE · HUMAN-IN-THE-LOOP</text>

  <g>
    <line x1="1085.0" y1="146.0" x2="1085.0" y2="82.6" stroke="#d8d0c0" stroke-width="1" opacity="0.5"/>
    <line x1="1097.0" y1="149.2" x2="1128.7" y2="94.3" stroke="#d8d0c0" stroke-width="1" opacity="0.5"/>
    <line x1="1105.8" y1="158.0" x2="1160.7" y2="126.3" stroke="#d8d0c0" stroke-width="1" opacity="0.5"/>
    <line x1="1109.0" y1="170.0" x2="1172.4" y2="170.0" stroke="#d8d0c0" stroke-width="1" opacity="0.5"/>
    <line x1="1105.8" y1="182.0" x2="1160.7" y2="213.7" stroke="#d8d0c0" stroke-width="1" opacity="0.5"/>
    <line x1="1097.0" y1="190.8" x2="1128.7" y2="245.7" stroke="#d8d0c0" stroke-width="1" opacity="0.5"/>
    <line x1="1085.0" y1="194.0" x2="1085.0" y2="257.4" stroke="#d8d0c0" stroke-width="1" opacity="0.5"/>
    <line x1="1073.0" y1="190.8" x2="1041.3" y2="245.7" stroke="#d8d0c0" stroke-width="1" opacity="0.5"/>
    <line x1="1064.2" y1="182.0" x2="1009.3" y2="213.7" stroke="#d8d0c0" stroke-width="1" opacity="0.5"/>
    <line x1="1061.0" y1="170.0" x2="997.6" y2="170.0" stroke="#d8d0c0" stroke-width="1" opacity="0.5"/>
    <line x1="1064.2" y1="158.0" x2="1009.3" y2="126.3" stroke="#d8d0c0" stroke-width="1" opacity="0.5"/>
    <line x1="1073.0" y1="149.2" x2="1041.3" y2="94.3" stroke="#d8d0c0" stroke-width="1" opacity="0.5"/>
    <circle cx="1085" cy="170" r="92" fill="none" stroke="#d8d0c0" stroke-width="1" opacity="0.35"/>
    <circle cx="1085.0" cy="78.0" r="4.6" fill="#3f7fd6"/>
    <circle cx="1131.0" cy="90.3" r="4.6" fill="#7c5fd0"/>
    <circle cx="1164.7" cy="124.0" r="4.6" fill="#2fa37a"/>
    <circle cx="1177.0" cy="170.0" r="4.6" fill="#b8902a"/>
    <circle cx="1164.7" cy="216.0" r="4.6" fill="#3f7fd6"/>
    <circle cx="1131.0" cy="249.7" r="4.6" fill="#7c5fd0"/>
    <circle cx="1085.0" cy="262.0" r="4.6" fill="#2fa37a"/>
    <circle cx="1039.0" cy="249.7" r="4.6" fill="#c25f93"/>
    <circle cx="1005.3" cy="216.0" r="4.6" fill="#b8902a"/>
    <circle cx="993.0" cy="170.0" r="4.6" fill="#3f7fd6"/>
    <circle cx="1005.3" cy="124.0" r="4.6" fill="#7c5fd0"/>
    <circle cx="1039.0" cy="90.3" r="4.6" fill="#2fa37a"/>
    <circle cx="1085" cy="170" r="32" fill="#e6cf9533"/>
    <circle cx="1085" cy="170" r="24" fill="#fbf3dc" stroke="#e0a92e" stroke-width="1.6"/>
    <text x="1085" y="171" font-family="Georgia, serif" font-size="17" font-weight="600" fill="#7a5e0e" text-anchor="middle" dominant-baseline="central">KL</text>
  </g>
</svg>
